<svg width="16" height="16" viewBox="0 0 16 16" fill="none" xmlns="http://www.w3.org/2000/svg">
<path d="M0 2.5C0 2.36739 0.0526784 2.24021 0.146447 2.14645C0.240215 2.05268 0.367392 2 0.5 2H2C2.11153 2.00003 2.21985 2.03735 2.30773 2.10602C2.39561 2.1747 2.45801 2.27078 2.485 2.379L2.89 4H14.5C14.5759 4.00002 14.6509 4.01734 14.7191 4.05065C14.7874 4.08396 14.8472 4.13238 14.8939 4.19224C14.9407 4.2521 14.9732 4.32182 14.9889 4.39611C15.0047 4.4704 15.0034 4.54731 14.985 4.621L13.485 10.621C13.458 10.7292 13.3956 10.8253 13.3077 10.894C13.2199 10.9626 13.1115 11 13 11H4C3.88847 11 3.78015 10.9626 3.69227 10.894C3.60439 10.8253 3.54199 10.7292 3.515 10.621L1.61 3H0.5C0.367392 3 0.240215 2.94732 0.146447 2.85355C0.0526784 2.75979 0 2.63261 0 2.5ZM3.14 5L4.39 10H12.61L13.86 5H3.14ZM5 13C4.73478 13 4.48043 13.1054 4.29289 13.2929C4.10536 13.4804 4 13.7348 4 14C4 14.2652 4.10536 14.5196 4.29289 14.7071C4.48043 14.8946 4.73478 15 5 15C5.26522 15 5.51957 14.8946 5.70711 14.7071C5.89464 14.5196 6 14.2652 6 14C6 13.7348 5.89464 13.4804 5.70711 13.2929C5.51957 13.1054 5.26522 13 5 13ZM3 14C3 13.4696 3.21071 12.9609 3.58579 12.5858C3.96086 12.2107 4.46957 12 5 12C5.53043 12 6.03914 12.2107 6.41421 12.5858C6.78929 12.9609 7 13.4696 7 14C7 14.5304 6.78929 15.0391 6.41421 15.4142C6.03914 15.7893 5.53043 16 5 16C4.46957 16 3.96086 15.7893 3.58579 15.4142C3.21071 15.0391 3 14.5304 3 14ZM12 13C11.7348 13 11.4804 13.1054 11.2929 13.2929C11.1054 13.4804 11 13.7348 11 14C11 14.2652 11.1054 14.5196 11.2929 14.7071C11.4804 14.8946 11.7348 15 12 15C12.2652 15 12.5196 14.8946 12.7071 14.7071C12.8946 14.5196 13 14.2652 13 14C13 13.7348 12.8946 13.4804 12.7071 13.2929C12.5196 13.1054 12.2652 13 12 13ZM10 14C10 13.4696 10.2107 12.9609 10.5858 12.5858C10.9609 12.2107 11.4696 12 12 12C12.5304 12 13.0391 12.2107 13.4142 12.5858C13.7893 12.9609 14 13.4696 14 14C14 14.5304 13.7893 15.0391 13.4142 15.4142C13.0391 15.7893 12.5304 16 12 16C11.4696 16 10.9609 15.7893 10.5858 15.4142C10.2107 15.0391 10 14.5304 10 14Z" fill="black"/>
<path d="M5.18982 13.63C5.22701 13.7175 5.27528 13.8009 5.31609 13.8825" stroke="black" stroke-width="3" stroke-linecap="round"/>
<path d="M11.8823 13.7983C11.9798 13.8989 12.0506 13.9556 12.0506 14.093" stroke="black" stroke-width="3" stroke-linecap="round"/>
<path d="M8.22035 6.01155C8.1789 6.2004 8.15034 6.39692 8.09408 6.57978C8.07452 6.64334 8.02344 6.89535 7.98652 6.93755C7.72396 7.23761 7.5247 7.88178 7.03246 7.86354C6.79294 7.85467 6.69462 7.1821 6.64195 7.00068C6.56144 6.72337 6.49467 6.43257 6.3894 6.16354C6.33164 6.01594 6.24547 5.92737 6.08308 5.92737C5.89309 5.92737 5.94401 6.25967 5.94745 6.39037C5.9572 6.76084 6.30221 7.08141 6.55777 7.29766C6.85769 7.55143 7.02499 7.91769 7.42063 8.06464C7.78155 8.1987 8.22051 8.15818 8.59917 8.15818C9.36981 8.15818 9.59046 7.2513 10.1612 6.87675C10.4055 6.71643 10.7548 6.69203 11.0311 6.61017C11.1795 6.5662 11.2756 6.65207 11.3772 6.51664" stroke="black" stroke-width="3" stroke-linecap="round"/>
<path d="M12.1348 9.08418C12.0525 9.27791 12.0261 9.30214 11.8308 9.29463C11.6805 9.28885 11.6324 8.86032 11.6297 8.74745C11.6262 8.59784 11.6297 8.14883 11.6297 8.29848C11.6297 8.50426 11.6297 8.71004 11.6297 8.91581C11.6297 9.17404 11.8559 8.73605 11.9243 8.65392C12.1705 8.35847 12.3672 8.03969 12.5697 7.71389C12.6824 7.53262 12.7822 7.30034 12.9345 7.148C13.0086 7.07396 12.9752 7.28391 12.9743 7.30467C12.9658 7.5038 12.9188 7.6471 12.8316 7.82145C12.7019 8.08101 12.6502 8.40515 12.5767 8.68431C12.5224 8.89067 12.551 9.09046 12.3967 9.26189C12.2392 9.43693 12.309 9.55334 12.06 9.59862C11.8129 9.64355 11.5445 9.67345 11.293 9.67345C10.7444 9.67345 10.2449 9.50508 9.70288 9.50508C9.02351 9.50508 8.34964 9.46299 7.67317 9.46299C6.72691 9.46299 5.78065 9.46299 4.83438 9.46299C4.6425 9.46299 4.52652 9.22496 4.47427 9.04209C4.44143 8.92712 4.39525 8.78296 4.32696 8.68431C4.21075 8.51646 4.26382 8.26685 4.26382 8.074C4.26382 7.7613 4.24637 7.49147 4.1469 7.20412C4.05885 6.94977 3.90288 6.73147 3.82187 6.47221C3.74341 6.22116 3.6968 5.93295 3.57166 5.70055C3.52271 5.60965 3.47922 5.48484 3.46643 5.38253C3.45621 5.30073 3.31244 5.20294 3.46877 5.22118C3.91201 5.27289 4.35557 5.29601 4.80165 5.29601C5.01598 5.29601 4.97634 5.371 4.82971 5.49711C4.64715 5.65411 4.54704 5.81373 4.41348 6.00453C4.27103 6.20803 4.26382 6.49803 4.26382 6.74814C4.26382 6.97338 4.27678 7.10332 4.40646 7.29064C4.46729 7.3785 4.45424 7.57068 4.48363 7.67647C4.56184 7.95804 4.68473 8.12251 4.68473 8.42943C4.68473 8.60871 4.68473 8.78798 4.68473 8.96726C4.68473 9.13919 4.63053 9.20336 4.60288 9.35543C4.58133 9.47398 4.51687 9.75763 4.72682 9.75763C5.12746 9.75763 5.5281 9.75763 5.92874 9.75763C6.43227 9.75763 6.9358 9.75763 7.43933 9.75763C7.5812 9.75763 7.72306 9.75763 7.86492 9.75763C8.05082 9.75763 7.73136 9.71527 7.67317 9.69449C7.50734 9.63527 7.35042 9.68763 7.18211 9.60563C6.69021 9.36599 6.35894 8.91344 5.86795 8.66795C5.7403 8.60412 5.53217 8.55774 5.42132 8.47152C5.31553 8.38925 5.23528 8.27033 5.12668 8.19793C4.90926 8.05299 4.99393 8.28109 5.02145 8.46685C5.05473 8.69146 5.20091 8.96917 5.33947 9.14731C5.81793 9.76247 6.66926 9.342 7.3458 9.59862C7.65841 9.7172 7.91438 9.75763 8.25309 9.75763C8.87743 9.75763 9.53091 9.82027 10.1285 9.61031C10.4067 9.51254 10.5391 9.28587 10.7715 9.13094C11.0223 8.96373 11.1574 8.91301 11.2532 8.60949C11.2993 8.4637 11.5882 7.47058 11.9056 7.93837C12.0247 8.1139 11.9664 8.43681 11.9664 8.63053C11.9664 8.88731 11.9806 9.12791 12.0085 9.37881C12.0203 9.48505 12.3048 9.5002 12.3476 9.65006C12.3623 9.70152 12.3113 9.65947 12.2657 9.63603C12.0521 9.52616 11.8549 9.39499 11.6344 9.29697C11.388 9.18748 11.0389 9.10447 10.9142 8.848C10.7718 8.55534 10.3132 8.08737 10.7458 7.80742C11.1554 7.54237 12.0424 7.51063 12.4715 7.74662C12.5914 7.81257 12.5136 8.47529 12.5136 8.61884C12.5136 8.77013 12.4726 8.96368 12.5767 9.06781C12.7031 9.19417 12.7756 9.41919 12.7662 9.58927C12.7614 9.67551 12.708 9.79244 12.6492 9.85116C12.6257 9.87466 12.5978 9.00156 12.5978 8.89243C12.5978 8.1481 12.5557 7.40594 12.5557 6.66396C12.5557 6.31985 13.1579 6.13818 13.3554 5.86657C13.5091 5.65526 13.7194 5.64336 13.7857 5.36148C13.8019 5.29244 13.8762 5.11567 13.7483 5.137C13.5639 5.16773 13.3979 5.23578 13.2198 5.28665C12.9163 5.37338 12.4867 5.29601 12.1769 5.29601C11.3694 5.29601 10.5618 5.29601 9.75433 5.29601C9.1623 5.29601 8.66929 5.22588 8.22269 5.67248C7.83942 6.05575 8.41496 6.52742 8.72544 6.68266C9.12275 6.88132 9.63326 6.88038 10.0677 6.91416C10.6456 6.95911 11.0924 6.91633 11.6204 6.67565C11.8356 6.5775 12.0028 6.47929 12.0085 6.23136C12.0109 6.12821 12.0409 5.9818 11.9337 5.92737C11.6787 5.79792 11.358 5.84319 11.0825 5.84319C10.7874 5.84319 10.5169 5.84813 10.2314 5.92971C9.59654 6.11108 8.96433 6.27526 8.32792 6.44883C8.08336 6.51552 7.85138 6.58351 7.61004 6.66396C7.44321 6.71957 7.18749 6.71525 7.0839 6.85337" stroke="black" stroke-linecap="round"/>
<path d="M13.0608 6.30619C12.7888 6.75301 12.675 7.29154 12.364 7.70921C12.3057 7.78745 12.2743 7.87757 12.219 7.95708C12.1055 8.12021 12.3886 7.59761 12.4762 7.41925C12.6878 6.9885 12.8115 6.50706 13.0795 6.10509C13.1407 6.01324 13.1871 5.75557 13.1871 6.0022C13.1871 6.36387 13.1871 6.72553 13.1871 7.0872C13.1871 7.12288 13.1952 7.47729 13.145 7.42393C13.0306 7.30239 13.1006 6.90465 13.1029 6.75048C13.1055 6.57322 13.1733 6.38972 13.2292 6.222" stroke="black" stroke-linecap="round"/>
<path d="M8.09408 8.20027C8.91866 8.17367 9.6698 7.54599 10.3763 7.17372C10.8576 6.92014 11.3027 6.60661 11.742 6.28748C11.9557 6.13218 12.1708 6.04595 12.4131 5.95075C12.4708 5.92806 12.5501 5.83812 12.6165 5.8502C12.7721 5.8785 12.7662 6.45773 12.7662 6.56808C12.7662 7.75444 11.6082 7.81331 10.6803 7.82145C10.3477 7.82437 9.97089 7.869 9.65144 7.75364C9.42434 7.67163 9.2147 7.51516 9.00138 7.40288C8.74699 7.26899 8.47326 7.18188 8.2227 7.04044C7.73828 6.76697 7.12541 6.222 6.53673 6.222C6.35463 6.222 6.17157 6.2168 5.98955 6.222C5.82469 6.22671 5.69269 6.54085 5.63645 6.66629C5.52352 6.91822 5.39725 7.48034 5.63411 7.67414C6.07492 8.0348 6.83738 8.04625 7.37386 8.1348C7.84657 8.21281 8.32499 8.21975 8.80495 8.19793C9.1719 8.18125 9.44357 7.97527 9.70289 7.72792C9.98964 7.4544 10.3128 7.35984 10.6569 7.18775C10.9366 7.04794 11.1849 6.84763 11.4707 6.71774C11.9112 6.51753 12.3235 6.20565 12.5557 6.85337C12.6466 7.10677 12.6399 7.38619 12.6399 7.65075C12.6399 7.85358 12.6833 8.11518 12.5955 8.3055C12.4276 8.66921 11.9609 8.78211 11.6274 8.93218C11.2952 9.08164 10.8489 9.10368 10.4956 9.16602C9.82642 9.28411 9.10343 9.21045 8.42613 9.21045C8.02691 9.21045 7.60623 9.24877 7.21486 9.159C6.92161 9.09175 6.62851 9 6.32627 9" stroke="black" stroke-linecap="round"/>
<path d="M8.17826 7.48473C8.21237 7.62797 8.24681 7.77845 8.39807 7.83081C8.46237 7.85306 8.52896 7.8494 8.55708 7.90563" stroke="black" stroke-linecap="round"/>
<path d="M8.0099 7.77936C8.18409 7.91792 8.39544 8.03498 8.5337 8.20962C8.63666 8.33967 8.88131 8.40239 9.02008 8.4949" stroke="black" stroke-linecap="round"/>
<path d="M5.10564 6.43245C5.41396 6.7991 5.80786 7.02601 6.22104 7.25556C6.41459 7.36309 6.61301 7.52523 6.83136 7.5689" stroke="black" stroke-linecap="round"/>
<path d="M5.23191 5.29601C5.1253 6.14881 5.16352 7.02876 5.6949 7.73727" stroke="black" stroke-linecap="round"/>
</svg>
